<svg
  width="32"
  height="32"
  viewBox="0 0 32 32"
  xmlns="http://www.w3.org/2000/svg"
>
  <g fill="none" fill-rule="evenodd">
    <rect fill="#FFECEB" width="32" height="32" rx="6" />
    <path
      d="M17.905 6a.72.72 0 0 1 .52.224l3.527 3.686 1.833 1.832c.127.127.2.292.213.464l.002.146v11.055C24 24.837 22.858 26 21.455 26h-10.91C9.142 26 8 24.837 8 23.407V8.593C8 7.163 9.142 6 10.545 6h7.36zM17 7.481h-6.455c-.601 0-1.09.499-1.09 1.112v14.814c0 .613.489 1.112 1.09 1.112h10.91c.602 0 1.09-.499 1.09-1.112V13h-2.966A2.582 2.582 0 0 1 17 10.422V7.48zm3.107 12.087c-.111.199-.288.22-.531.22-.264 0-.619-.131-.994-.352 1.083-.112 1.636-.067 1.525.132zm-4.467-.376c-.155.045-.332.088-.508.155.044-.11.088-.221.132-.31.155-.398.31-.774.42-1.128.133.2.288.377.399.509.176.176.353.354.509.53-.288.066-.62.155-.952.244zm-.53-5.24c.022-.045.022-.068.155-.068.132 0 .177.045.199.09.154.22.154.795-.022 1.702-.288-.753-.465-1.437-.333-1.725zm-3.074 8.27c-.067.021-.089 0-.156-.11.045-.222.465-.642 1.372-1.085-.465.664-.907 1.129-1.216 1.194zm4.688-4.4a5.296 5.296 0 0 1-.686-.974c.487-1.66.554-2.81.155-3.384-.2-.31-.53-.464-.907-.464-.442 0-.796.199-.95.597-.332.774.177 2.19.773 3.34-.154.53-.375 1.127-.64 1.769a8.666 8.666 0 0 1-.487 1.038c-1.327.51-2.786 1.283-2.964 2.212a.917.917 0 0 0 .355.928.867.867 0 0 0 .596.222c.09 0 .178-.023.266-.044.818-.2 1.681-1.415 2.344-2.61.376-.132.818-.288 1.283-.42a21.133 21.133 0 0 1 1.503-.375c.819.663 1.548 1.016 2.168 1.016.442.023.84-.154 1.15-.486.485-.487.286-.93.22-1.061-.354-.597-1.547-.73-3.295-.398a38.223 38.223 0 0 1-.884-.907zm1.75-9.306v1.905c0 .61.495 1.106 1.105 1.106l1.889-.001-.365-.381-2.63-2.629z"
      fill="#253342"
    />
  </g>
</svg>
