<svg width="32" height="32" viewBox="32 32" xmlns="http://www.w3.org/2000/svg">
  <g fill="none" fill-rule="evenodd">
    <rect fill="#EBF9FF" width="32" height="32" rx="6" />
    <path
      d="M17.905 6a.72.72 0 0 1 .52.224l3.527 3.686 1.833 1.832c.127.127.2.292.213.464l.002.146v11.055C24 24.837 22.858 26 21.455 26h-10.91C9.142 26 8 24.837 8 23.407V8.593C8 7.163 9.142 6 10.545 6h7.36zM17 7.481h-6.455c-.601 0-1.09.499-1.09 1.112v14.814c0 .613.489 1.112 1.09 1.112h10.91c.602 0 1.09-.499 1.09-1.112V13h-2.966A2.582 2.582 0 0 1 17 10.422V7.48zm1.474 1.035v1.905c0 .61.495 1.106 1.105 1.106l1.889-.001-.365-.381-2.63-2.629zM15.124 13a.667.667 0 0 1 0 1.333h-2.457a.668.668 0 0 1 0-1.333h2.456zm4.21 8.978h-6.667a.667.667 0 0 1 0-1.334h6.666a.668.668 0 0 1 0 1.334m0-3.823h-6.666a.667.667 0 0 1 0-1.333h6.666a.668.668 0 0 1 0 1.333"
      fill="#253342"
    />
  </g>
</svg>
